<?xml version="1.0" standalone="no"?><!DOCTYPE svg PUBLIC "-//W3C//DTD SVG 1.1//EN" "http://www.w3.org/Graphics/SVG/1.1/DTD/svg11.dtd"><svg t="1701498490150" class="icon" viewBox="0 0 1024 1024" version="1.1" xmlns="http://www.w3.org/2000/svg" p-id="2059" xmlns:xlink="http://www.w3.org/1999/xlink" width="200" height="200"><path d="M413.86343406 410.64584172l14.47916545-12.06597121c8.8483789-7.23958273 24.93634053-2.41319424 37.00231175 10.45717505l327.3900192 353.93515589c13.67476739 14.47916546 16.89235971 34.58911749 7.23958275 42.63309832l-48.26388489 40.21990409c-9.65277699 8.04398081-28.15393285 1.60879617-40.2199041-14.47916547L417.88542446 449.25694963c-11.26157314-14.47916546-12.87036929-31.37152518-4.0219904-38.61110791z" fill="#2c2c2c" p-id="2060"></path><path d="M382.86124227 442.26813486a30.5671271 56.30786571 54.997 1 0 92.24602479-64.59855951 30.5671271 56.30786571 54.997 1 0-92.24602479 64.59855951Z" fill="#2c2c2c" p-id="2061"></path><path d="M743.25430863 865.07361099a24.93634053 52.28587532 49.998 1 0 80.10426262-67.22022169 24.93634053 52.28587532 49.998 1 0-80.10426262 67.22022169Z" fill="#2c2c2c" p-id="2062"></path><path d="M382.49190885 174.15280574c125.48610073 76.41781775 81.24420624 190.64234533 31.37152521 230.05785133-53.0902734 41.82870022-186.62035492 53.0902734-227.64465711-109.39813911-33.78471942-134.33447963 10.45717506-149.61804318 10.45717507-149.61804317s44.2418945-57.1122638 185.81595683 28.95833095z" fill="#ffd700" p-id="2063"></path></svg>